<?xml version="1.0" encoding="UTF-8" standalone="no"?>
<svg
   height="16"
   width="16"
   viewBox="0 0 512 512"
   version="1.1"
   id="svg185"
   sodipodi:docname="icon_purple.svg"
   inkscape:version="1.2.2 (732a01da63, 2022-12-09)"
   xml:space="preserve"
   xmlns:inkscape="http://www.inkscape.org/namespaces/inkscape"
   xmlns:sodipodi="http://sodipodi.sourceforge.net/DTD/sodipodi-0.dtd"
   xmlns="http://www.w3.org/2000/svg"
   xmlns:svg="http://www.w3.org/2000/svg"><defs
     id="defs189" /><sodipodi:namedview
     id="namedview187"
     pagecolor="#ffffff"
     bordercolor="#000000"
     borderopacity="0.25"
     inkscape:showpageshadow="2"
     inkscape:pageopacity="0.0"
     inkscape:pagecheckerboard="0"
     inkscape:deskcolor="#d1d1d1"
     showgrid="false"
     inkscape:zoom="16.453125"
     inkscape:cx="27.107312"
     inkscape:cy="14.100665"
     inkscape:window-width="2560"
     inkscape:window-height="1369"
     inkscape:window-x="-8"
     inkscape:window-y="-8"
     inkscape:window-maximized="1"
     inkscape:current-layer="svg185" /><!--!Font Awesome Free 6.5.1 by @fontawesome - https://fontawesome.com License - https://fontawesome.com/license/free Copyright 2024 Fonticons, Inc.--><path
     fill="#ffc23d"
     d="M 256,23.127922 C 127.35696,23.127922 23.127922,127.35696 23.127922,256 23.127922,384.64304 127.35696,488.87208 256,488.87208 384.64304,488.87208 488.87208,384.64304 488.87208,256 488.87208,127.35696 384.64304,23.127922 256,23.127922 Z"
     id="path183-4"
     style="fill:#b590b2;stroke-width:0.999998;fill-opacity:1" /><path
     d="m 106.13621,304.2202 129.94428,121.31489 c 5.39337,5.03381 12.51261,7.83836 19.91952,7.83836 7.40689,0 14.52614,-2.80455 19.9195,-7.83836 L 405.8638,304.2202 c 21.86113,-20.35099 34.22993,-48.8999 34.22993,-78.74321 v -4.17088 c 0,-50.26621 -36.31537,-93.12553 -85.86248,-101.39533 -32.79168,-5.46526 -66.15867,5.24952 -89.60186,28.6927 l -8.62938,8.62939 -8.6294,-8.62939 c -23.44318,-23.44318 -56.81017,-34.15796 -89.60186,-28.6927 -49.5471,8.2698 -85.862464,51.12912 -85.862464,101.39533 v 4.17088 c 0,29.84331 12.368799,58.39222 34.229924,78.74321 z"
     id="path2"
     style="fill:#ffffff;stroke-width:0.999999" /></svg>
