<?xml version="1.0" encoding="UTF-8" standalone="no"?>
<svg
   height="16"
   width="16"
   viewBox="0 0 512 512"
   version="1.1"
   id="svg185"
   sodipodi:docname="icon_purple.svg"
   inkscape:version="1.2.2 (732a01da63, 2022-12-09)"
   xml:space="preserve"
   xmlns:inkscape="http://www.inkscape.org/namespaces/inkscape"
   xmlns:sodipodi="http://sodipodi.sourceforge.net/DTD/sodipodi-0.dtd"
   xmlns="http://www.w3.org/2000/svg"
   xmlns:svg="http://www.w3.org/2000/svg"><defs
     id="defs189" /><sodipodi:namedview
     id="namedview187"
     pagecolor="#ffffff"
     bordercolor="#000000"
     borderopacity="0.25"
     inkscape:showpageshadow="2"
     inkscape:pageopacity="0.0"
     inkscape:pagecheckerboard="0"
     inkscape:deskcolor="#d1d1d1"
     showgrid="false"
     inkscape:zoom="32"
     inkscape:cx="-1.78125"
     inkscape:cy="14.125"
     inkscape:window-width="2560"
     inkscape:window-height="1369"
     inkscape:window-x="-8"
     inkscape:window-y="-8"
     inkscape:window-maximized="1"
     inkscape:current-layer="svg185" /><path
     fill="#ffc23d"
     d="M 256,5.0272e-7 C 114.58065,5.0272e-7 1.602036e-6,114.58065 1.602036e-6,256 1.602036e-6,397.41936 114.58065,512.00001 256,512.00001 397.41936,512.00001 512.00001,397.41936 512.00001,256 512.00001,114.58065 397.41936,5.0272e-7 256,5.0272e-7 Z"
     id="path183-4-6"
     style="fill:#ffffff;fill-opacity:1;stroke-width:0.999998" /><!--!Font Awesome Free 6.5.1 by @fontawesome - https://fontawesome.com License - https://fontawesome.com/license/free Copyright 2024 Fonticons, Inc.--><path
     fill="#ffc23d"
     d="M 256,7.3779219 C 118.65636,7.3779219 7.3779219,118.65636 7.3779219,256 7.3779219,393.34364 118.65636,504.62208 256,504.62208 393.34364,504.62208 504.62208,393.34364 504.62208,256 504.62208,118.65636 393.34364,7.3779219 256,7.3779219 Z"
     id="path183-4"
     style="fill:#d84ecc;fill-opacity:1;stroke-width:0.999998" /><path
     d="m 149.27859,289.98838 92.53628,92.1124 c 3.84074,3.8221 8.91051,5.95155 14.18514,5.95155 5.27461,0 10.3444,-2.12945 14.18514,-5.95155 l 92.53629,-92.1124 c 15.5678,-15.45216 24.37591,-37.12889 24.37591,-59.78842 v -3.16688 c 0,-38.16631 -25.861,-70.70868 -61.14463,-76.98781 -23.35171,-4.14968 -47.1131,3.98587 -63.80753,21.7859 l -6.14518,6.55215 -6.14519,-6.55215 c -16.69443,-17.80003 -40.45582,-25.93558 -63.80753,-21.7859 -35.28361,6.27913 -61.14462,38.8215 -61.14462,76.98781 v 3.16688 c 0,22.65953 8.8081,44.33626 24.37592,59.78842 z"
     id="path2"
     style="fill:#ffffff;stroke-width:0.999998" /></svg>
