<?xml version="1.0" encoding="UTF-8" standalone="no"?>
<svg
   height="16"
   width="16"
   viewBox="0 0 512 512"
   version="1.1"
   id="svg185"
   sodipodi:docname="icon_purple.svg"
   inkscape:version="1.2.2 (732a01da63, 2022-12-09)"
   xml:space="preserve"
   xmlns:inkscape="http://www.inkscape.org/namespaces/inkscape"
   xmlns:sodipodi="http://sodipodi.sourceforge.net/DTD/sodipodi-0.dtd"
   xmlns="http://www.w3.org/2000/svg"
   xmlns:svg="http://www.w3.org/2000/svg"><defs
     id="defs189" /><sodipodi:namedview
     id="namedview187"
     pagecolor="#ffffff"
     bordercolor="#000000"
     borderopacity="0.25"
     inkscape:showpageshadow="2"
     inkscape:pageopacity="0.0"
     inkscape:pagecheckerboard="0"
     inkscape:deskcolor="#d1d1d1"
     showgrid="false"
     inkscape:zoom="23.268233"
     inkscape:cx="9.5838822"
     inkscape:cy="5.114269"
     inkscape:window-width="2560"
     inkscape:window-height="1369"
     inkscape:window-x="-8"
     inkscape:window-y="-8"
     inkscape:window-maximized="1"
     inkscape:current-layer="svg185" /><!--!Font Awesome Free 6.5.1 by @fontawesome - https://fontawesome.com License - https://fontawesome.com/license/free Copyright 2024 Fonticons, Inc.--><path
     fill="#ffc23d"
     d="M 256,23.127922 C 127.35696,23.127922 23.127922,127.35696 23.127922,256 23.127922,384.64304 127.35696,488.87208 256,488.87208 384.64304,488.87208 488.87208,384.64304 488.87208,256 488.87208,127.35696 384.64304,23.127922 256,23.127922 Z"
     id="path183-4"
     style="fill:#b590b2;stroke-width:0.999998;fill-opacity:1" /><path
     d="m 156.00972,294.8092 86.69983,80.94224 c 3.5985,3.3586 8.34851,5.22982 13.29046,5.22982 4.94193,0 9.69195,-1.87122 13.29045,-5.22982 L 355.9903,294.8092 c 14.58591,-13.57833 22.83847,-32.62639 22.83847,-52.53808 v -2.78284 c 0,-33.53801 -24.22989,-62.13408 -57.28811,-67.65176 -21.87887,-3.64646 -44.14158,3.50252 -59.78306,19.144 l -5.75759,5.75759 -5.7576,-5.75759 c -15.64148,-15.64148 -37.90419,-22.79046 -59.78306,-19.144 -33.05821,5.51768 -57.28811,34.11375 -57.28811,67.65176 v 2.78284 c 0,19.91169 8.25256,38.95975 22.83848,52.53808 z"
     id="path2"
     style="fill:#ffffff;stroke-width:0.999998" /></svg>
