<?xml version="1.0" encoding="UTF-8" standalone="no"?>
<svg
   height="16"
   width="16"
   viewBox="0 0 512 512"
   version="1.1"
   id="svg185"
   sodipodi:docname="icon_purple.svg"
   inkscape:version="1.2.2 (732a01da63, 2022-12-09)"
   xml:space="preserve"
   xmlns:inkscape="http://www.inkscape.org/namespaces/inkscape"
   xmlns:sodipodi="http://sodipodi.sourceforge.net/DTD/sodipodi-0.dtd"
   xmlns="http://www.w3.org/2000/svg"
   xmlns:svg="http://www.w3.org/2000/svg"><defs
     id="defs189" /><sodipodi:namedview
     id="namedview187"
     pagecolor="#ffffff"
     bordercolor="#000000"
     borderopacity="0.25"
     inkscape:showpageshadow="2"
     inkscape:pageopacity="0.0"
     inkscape:pagecheckerboard="0"
     inkscape:deskcolor="#d1d1d1"
     showgrid="false"
     inkscape:zoom="45.254834"
     inkscape:cx="17.832349"
     inkscape:cy="9.8332037"
     inkscape:window-width="2560"
     inkscape:window-height="1369"
     inkscape:window-x="-8"
     inkscape:window-y="-8"
     inkscape:window-maximized="1"
     inkscape:current-layer="svg185" /><path
     fill="#ffc23d"
     d="M 256,5.0272e-7 C 114.58065,5.0272e-7 1.602036e-6,114.58065 1.602036e-6,256 1.602036e-6,397.41936 114.58065,512.00001 256,512.00001 397.41936,512.00001 512.00001,397.41936 512.00001,256 512.00001,114.58065 397.41936,5.0272e-7 256,5.0272e-7 Z"
     id="path183-4-6"
     style="fill:#807d91;fill-opacity:1;stroke-width:0.999998" /><!--!Font Awesome Free 6.5.1 by @fontawesome - https://fontawesome.com License - https://fontawesome.com/license/free Copyright 2024 Fonticons, Inc.--><path
     fill="#ffc23d"
     d="M 256,7.3779219 C 118.65636,7.3779219 7.3779219,118.65636 7.3779219,256 7.3779219,393.34364 118.65636,504.62208 256,504.62208 393.34364,504.62208 504.62208,393.34364 504.62208,256 504.62208,118.65636 393.34364,7.3779219 256,7.3779219 Z"
     id="path183-4"
     style="fill:#9974d2;fill-opacity:1;stroke-width:0.999998" /><path
     sodipodi:type="star"
     style="fill:#ffffff;fill-opacity:1;stroke:#807d91;stroke-width:4.05248885;stroke-dasharray:none;stroke-opacity:1"
     id="path4666"
     inkscape:flatsided="false"
     sodipodi:sides="5"
     sodipodi:cx="-332.34018"
     sodipodi:cy="561.44281"
     sodipodi:r1="141.59802"
     sodipodi:r2="60.88715"
     sodipodi:arg1="-1.5707963"
     sodipodi:arg2="-0.9424778"
     inkscape:rounded="0"
     inkscape:randomized="0"
     d="m -332.34018,419.84479 35.78857,92.33928 98.87915,5.50255 -76.7606,62.57135 25.32211,95.74005 -83.22923,-53.66806 -83.22923,53.66805 25.32211,-95.74004 -76.7606,-62.57136 98.87915,-5.50254 z"
     inkscape:transform-center-y="-21.35401"
     transform="matrix(1.5792764,0,0,1.5792764,780.85699,-630.67335)"
     inkscape:transform-center-x="1.2044135e-05" /></svg>
